<svg xmlns="http://www.w3.org/2000/svg" width="16.08108103275299" height="16.540540516376495" style=""><rect id="backgroundrect" width="100%" height="100%" x="0" y="0" fill="none" stroke="none" style="" class=""/><g class="currentLayer" style=""><title>Layer 1</title><path d="M11.542335271835327,3.076456665992737 H3.147498369216919 C2.6127313375473022,3.076456665992737 2.178863525390625,3.526281714439392 2.178863525390625,4.080699563026428 v7.364412307739258 c0,0.5544231534004211 0.4338677227497101,1.0042381286621094 0.9686350226402283,1.0042381286621094 h8.394837379455566 c0.534767210483551,0 0.9686350226402283,-0.44981494545936584 0.9686350226402283,-1.0042381286621094 V4.080699563026428 c0,-0.5544231534004211 -0.4338677227497101,-1.0042381286621094 -0.9686350226402283,-1.0042381286621094 zM2.824620246887207,4.080699563026428 c0,-0.18411031365394592 0.14529526233673096,-0.33474603295326233 0.322878360748291,-0.33474603295326233 h0.9686350226402283 v1.3389841318130493 H2.824620246887207 V4.080699563026428 zm9.040594100952148,7.364412307739258 c0,0.18411031365394592 -0.14529526233673096,0.33474603295326233 -0.322878360748291,0.33474603295326233 H3.147498369216919 c-0.17758308351039886,0 -0.322878360748291,-0.1506357043981552 -0.322878360748291,-0.33474603295326233 V5.754433751106262 h9.040594100952148 v5.690682888031006 zm0,-6.360174655914307 H4.761890172958374 V3.745947003364563 h6.780445098876953 c0.17758308351039886,0 0.322878360748291,0.1506357043981552 0.322878360748291,0.33474603295326233 v1.0042381286621094 z" id="svg_1" class="selected" transform="translate(0.540541, 0.27027)" fill="#ffffff" fill-opacity="1"/></g></svg>