<?xml version="1.0" standalone="no"?><!DOCTYPE svg PUBLIC "-//W3C//DTD SVG 1.1//EN" "http://www.w3.org/Graphics/SVG/1.1/DTD/svg11.dtd"><svg class="icon" height="512" viewBox="0 0 1489 1024" version="1.1" xmlns="http://www.w3.org/2000/svg"><path d="M1465.995636 345.832727c-57.064727-38.818909-123.904-39.656727-168.122181-34.164363-21.876364-92.066909-105.192727-144.197818-109.288728-146.711273l-31.464727-19.269818-22.528 29.323636c-71.121455 92.718545-52.317091 193.629091-22.248727 255.720727a185.250909 185.250909 0 0 1-75.031273 20.48h-25.227636V298.449455h-172.218182V0.186182H632.087273v149.131636H291.374545v149.038546h-170.356363v152.855272H9.588364l-5.213091 35.002182c-1.210182 7.912727-27.927273 195.304727 96.628363 340.433455 91.136 106.123636 236.730182 159.930182 432.779637 159.930182 302.824727 0 488.913455-133.678545 591.592727-245.76a769.675636 769.675636 0 0 0 141.312-218.577455c189.719273-3.258182 215.505455-129.210182 216.529455-134.888727l4.933818-26.437818-22.248728-15.080728zM691.665455 297.797818v-88.715636h88.622545v88.715636H691.665455zM350.952727 446.836364v-88.715637h88.529455V446.836364H350.952727z m170.356364 0v-88.715637h88.529454V446.836364h-88.436363z m170.356364 0v-88.715637h88.622545V446.836364H691.665455z m172.218181-88.715637h88.436364V446.836364h-88.436364v-88.715637zM691.665455 60.043636h88.622545v88.622546H691.665455V60.043636zM521.309091 209.082182h88.529454v88.715636h-88.436363v-88.715636z m-170.356364 0h88.529455v88.715636H350.952727v-88.715636zM180.596364 358.120727h88.436363V446.836364h-88.436363v-88.715637z m353.28 546.257455c-93.090909 0-172.404364-13.125818-237.474909-39.098182 48.221091-10.24 103.237818-29.044364 152.66909-63.953455a41.146182 41.146182 0 0 0-47.19709-67.211636c-80.430545 56.692364-184.32 60.602182-218.298182 60.229818a301.614545 301.614545 0 0 1-19.642182-20.666182C92.439273 690.734545 82.850909 586.752 83.502545 533.410909h953.809455c3.537455 0 89.088-0.744727 156.858182-59.857454l5.026909-4.468364c-7.819636 22.993455-155.927273 435.2-665.320727 435.2z m706.746181-464.802909l-25.413818-1.210182-15.266909-20.386909c-0.558545-0.837818-54.644364-74.565818-21.876363-155.461818 20.945455 21.690182 44.125091 55.389091 42.914909 97.093818l-1.675637 58.274909 55.389091-17.966546c0.651636-0.186182 58.833455-17.966545 112.267637-1.582545-18.897455 20.573091-60.043636 45.428364-146.33891 41.239273zM551.284364 606.580364a67.118545 67.118545 0 0 1 0 134.237091 67.118545 67.118545 0 0 1 0-134.237091z m0 82.292363a15.080727 15.080727 0 1 0 0-30.254545 15.080727 15.080727 0 0 0 0 30.254545z" fill="#FFFFFF" /></svg>