<?xml version="1.0" encoding="UTF-8"?>
<svg xmlns="http://www.w3.org/2000/svg" xmlns:xlink="http://www.w3.org/1999/xlink" width="25pt" height="25pt" viewBox="0 0 25 25" version="1.1">
<g id="surface1">
<path style=" stroke:none;fill-rule:nonzero;fill:rgb(100%,100%,100%);fill-opacity:1;" d="M 14.398438 21.09375 C 14.113281 20.417969 13.78125 19.636719 13.496094 18.886719 C 12.792969 17.039062 15.523438 16.753906 15.523438 16.753906 C 15.523438 16.753906 21.378906 16.457031 21.722656 9.683594 C 21.722656 9.683594 19.847656 11.589844 18.210938 11.351562 C 16.574219 11.113281 14.234375 10 12.34375 13.421875 C 10.4375 10 8.109375 11.125 6.472656 11.351562 C 4.835938 11.589844 2.960938 9.683594 2.960938 9.683594 C 3.304688 16.46875 9.160156 16.753906 9.160156 16.753906 C 9.160156 16.753906 11.683594 17.039062 11.1875 18.886719 C 10.992188 19.625 10.757812 20.351562 10.480469 21.0625 L 10.992188 21.996094 L 11.683594 22.535156 L 12.34375 22.714844 L 12.777344 22.714844 L 13.605469 22.097656 L 14.203125 21.289062 Z M 14.398438 21.09375 "/>
<path style=" stroke:none;fill-rule:nonzero;fill:rgb(100%,100%,100%);fill-opacity:1;" d="M 18.167969 11.351562 C 16.53125 11.109375 14.1875 10 12.296875 13.421875 C 12.066406 12.980469 11.777344 12.574219 11.441406 12.207031 C 11.546875 14.699219 11.964844 20.328125 13.453125 22.191406 L 13.542969 22.117188 L 14.140625 21.304688 L 14.351562 21.09375 C 14.066406 20.417969 13.738281 19.636719 13.453125 18.886719 C 12.746094 17.042969 15.480469 16.757812 15.480469 16.757812 C 15.480469 16.757812 21.332031 16.457031 21.679688 9.683594 C 21.679688 9.671875 19.816406 11.578125 18.167969 11.351562 Z M 18.167969 11.351562 "/>
<path style=" stroke:none;fill-rule:nonzero;fill:rgb(100%,100%,100%);fill-opacity:1;" d="M 14.398438 21.519531 C 14.226562 21.519531 14.066406 21.417969 13.996094 21.257812 C 13.707031 20.609375 13.394531 19.835938 13.085938 19.027344 C 12.863281 18.527344 12.894531 17.953125 13.171875 17.480469 C 13.765625 16.507812 15.304688 16.320312 15.480469 16.300781 C 15.710938 16.289062 20.359375 15.980469 21.175781 10.710938 C 20.414062 11.277344 19.257812 11.933594 18.148438 11.769531 C 17.898438 11.738281 17.640625 11.683594 17.367188 11.628906 C 15.8125 11.308594 14.199219 10.976562 12.730469 13.617188 C 12.683594 13.699219 12.609375 13.769531 12.523438 13.808594 C 12.464844 13.835938 12.402344 13.847656 12.339844 13.847656 C 12.179688 13.847656 12.03125 13.757812 11.953125 13.617188 C 10.480469 10.976562 8.871094 11.308594 7.3125 11.628906 C 7.042969 11.683594 6.785156 11.738281 6.53125 11.773438 C 5.421875 11.933594 4.265625 11.277344 3.503906 10.710938 C 4.324219 15.980469 8.972656 16.289062 9.179688 16.300781 C 9.191406 16.300781 9.199219 16.300781 9.207031 16.304688 C 9.269531 16.308594 10.746094 16.488281 11.390625 17.433594 C 11.691406 17.890625 11.773438 18.460938 11.609375 18.984375 C 11.410156 19.738281 11.171875 20.480469 10.890625 21.210938 C 10.800781 21.433594 10.542969 21.546875 10.316406 21.457031 C 10.09375 21.367188 9.980469 21.113281 10.070312 20.886719 C 10.339844 20.191406 10.570312 19.480469 10.761719 18.757812 C 10.855469 18.480469 10.820312 18.175781 10.664062 17.925781 C 10.265625 17.34375 9.207031 17.1875 9.117188 17.175781 C 8.707031 17.148438 2.871094 16.578125 2.519531 9.691406 C 2.507812 9.507812 2.613281 9.339844 2.78125 9.265625 C 2.949219 9.191406 3.144531 9.230469 3.269531 9.359375 C 3.75 9.84375 5.25 11.070312 6.40625 10.898438 C 6.636719 10.867188 6.878906 10.816406 7.136719 10.765625 C 8.628906 10.460938 10.632812 10.046875 12.339844 12.566406 C 14.050781 10.046875 16.054688 10.460938 17.546875 10.765625 C 17.804688 10.816406 18.046875 10.867188 18.269531 10.898438 C 19.4375 11.070312 20.933594 9.847656 21.410156 9.359375 C 21.539062 9.230469 21.734375 9.191406 21.902344 9.265625 C 22.066406 9.339844 22.171875 9.507812 22.164062 9.691406 C 21.8125 16.597656 15.941406 17.148438 15.5625 17.175781 C 15.207031 17.21875 14.230469 17.429688 13.917969 17.941406 C 13.789062 18.183594 13.785156 18.46875 13.90625 18.714844 C 14.210938 19.507812 14.519531 20.265625 14.800781 20.898438 C 14.859375 21.035156 14.847656 21.195312 14.765625 21.316406 C 14.683594 21.441406 14.546875 21.519531 14.398438 21.519531 Z M 14.398438 21.519531 "/>
<path style=" stroke:none;fill-rule:nonzero;fill:rgb(100%,100%,100%);fill-opacity:1;" d="M 0.585938 22.234375 C 0.585938 22.234375 3.0625 21.0625 5.242188 19.804688 C 5.34375 19.742188 6.695312 19.804688 6.695312 19.804688 L 7.882812 19.804688 C 7.988281 19.804688 9.546875 20.75 9.546875 20.75 C 9.546875 20.75 11.171875 21.5 11.453125 21.574219 C 11.738281 21.648438 14.203125 21.304688 14.203125 21.304688 L 16.019531 20.285156 L 17.460938 19.804688 L 20.28125 20.285156 C 20.28125 20.285156 26.648438 21.8125 24.15625 22.683594 C 24.003906 22.730469 22.863281 24.019531 22.730469 24.125 C 22.609375 24.230469 18.960938 25.085938 18.960938 25.085938 L 11.621094 25.085938 L 2.539062 24.382812 Z M 0.585938 22.234375 "/>
<path style=" stroke:none;fill-rule:nonzero;fill:rgb(100%,100%,100%);fill-opacity:1;" d="M 24.324219 22.132812 C 22.722656 22.132812 21.882812 21.59375 21.140625 21.121094 C 20.441406 20.667969 19.78125 20.242188 18.4375 20.242188 C 17.09375 20.242188 16.433594 20.667969 15.734375 21.121094 C 14.992188 21.59375 14.152344 22.132812 12.550781 22.132812 C 10.953125 22.132812 10.113281 21.59375 9.371094 21.121094 C 8.671875 20.667969 8.011719 20.242188 6.667969 20.242188 C 5.324219 20.242188 4.664062 20.667969 3.960938 21.121094 C 3.222656 21.597656 2.382812 22.132812 0.78125 22.132812 C 0.539062 22.132812 0.34375 21.9375 0.34375 21.695312 C 0.34375 21.453125 0.539062 21.253906 0.78125 21.253906 C 2.125 21.253906 2.785156 20.828125 3.488281 20.378906 C 4.226562 19.902344 5.066406 19.363281 6.667969 19.363281 C 8.269531 19.363281 9.105469 19.902344 9.847656 20.378906 C 10.546875 20.828125 11.210938 21.253906 12.550781 21.253906 C 13.894531 21.253906 14.558594 20.828125 15.257812 20.378906 C 15.996094 19.902344 16.835938 19.363281 18.4375 19.363281 C 20.039062 19.363281 20.878906 19.902344 21.617188 20.378906 C 22.320312 20.828125 22.980469 21.253906 24.324219 21.253906 C 24.566406 21.253906 24.761719 21.453125 24.761719 21.695312 C 24.761719 21.9375 24.566406 22.132812 24.324219 22.132812 Z M 24.324219 22.132812 "/>
<path style=" stroke:none;fill-rule:nonzero;fill:rgb(100%,100%,100%);fill-opacity:1;" d="M 9.402344 4.65625 L 8.6875 9.289062 L 13.808594 10.082031 L 14.523438 5.449219 Z M 10.539062 8.199219 L 10.089844 8.136719 L 10.328125 6.367188 L 10.78125 6.425781 Z M 11.621094 8.332031 L 11.171875 8.273438 L 11.410156 6.515625 L 11.859375 6.578125 Z M 12.6875 8.484375 L 12.238281 8.421875 L 12.476562 6.664062 L 12.925781 6.726562 Z M 12.6875 8.484375 "/>
<path style=" stroke:none;fill-rule:nonzero;fill:rgb(100%,100%,100%);fill-opacity:1;" d="M 4.21875 4.515625 L 5.574219 9 L 9.964844 7.675781 L 10.195312 6.386719 L 9.179688 3.019531 Z M 6.773438 7.21875 L 6.339844 7.359375 L 5.792969 5.65625 L 6.226562 5.515625 Z M 7.808594 6.875 L 7.375 7.011719 L 6.832031 5.324219 L 7.265625 5.1875 Z M 8.832031 6.550781 L 8.402344 6.6875 L 7.859375 5 L 8.292969 4.863281 Z M 8.832031 6.550781 "/>
<path style=" stroke:none;fill-rule:nonzero;fill:rgb(100%,100%,100%);fill-opacity:1;" d="M 20.164062 3.867188 L 14.996094 4.234375 L 15.324219 8.90625 L 20.492188 8.542969 Z M 16.484375 7.339844 L 16.394531 5.566406 L 16.847656 5.542969 L 16.9375 7.316406 Z M 17.578125 7.28125 L 17.476562 5.507812 L 17.925781 5.484375 L 18.03125 7.253906 Z M 18.660156 7.222656 L 18.554688 5.449219 L 19.007812 5.421875 L 19.113281 7.195312 Z M 18.660156 7.222656 "/>
<path style=" stroke:none;fill-rule:nonzero;fill:rgb(100%,100%,100%);fill-opacity:1;" d="M 20.613281 0 L 4.503906 0 C 2.019531 0.00390625 0.00390625 2.019531 0 4.503906 L 0 20.613281 C 0.00390625 23.101562 2.019531 25.117188 4.503906 25.117188 L 20.613281 25.117188 C 23.101562 25.117188 25.113281 23.101562 25.117188 20.613281 L 25.117188 4.503906 C 25.113281 2.019531 23.101562 0.00390625 20.613281 0 Z M 24.304688 20.613281 C 24.304688 22.652344 22.652344 24.304688 20.613281 24.304688 L 4.503906 24.304688 C 2.464844 24.304688 0.816406 22.652344 0.8125 20.613281 L 0.8125 4.503906 C 0.816406 2.464844 2.464844 0.816406 4.503906 0.8125 L 20.613281 0.8125 C 22.652344 0.816406 24.304688 2.464844 24.304688 4.503906 Z M 24.304688 20.613281 "/>
<path style=" stroke:none;fill-rule:nonzero;fill:rgb(100%,100%,100%);fill-opacity:1;" d="M 5.445312 4.863281 L 9.242188 4.863281 L 9.242188 7.460938 L 5.445312 7.460938 Z M 5.445312 4.863281 "/>
<path style=" stroke:none;fill-rule:nonzero;fill:rgb(100%,100%,100%);fill-opacity:1;" d="M 9.613281 5.769531 L 13.285156 5.769531 L 13.285156 8.824219 L 9.613281 8.824219 Z M 9.613281 5.769531 "/>
<path style=" stroke:none;fill-rule:nonzero;fill:rgb(100%,100%,100%);fill-opacity:1;" d="M 15.71875 5.027344 L 19.71875 5.027344 L 19.71875 7.75 L 15.71875 7.75 Z M 15.71875 5.027344 "/>
</g>
</svg>
